<svg width="184" height="53" viewBox="0 0 184 53" fill="none" xmlns="http://www.w3.org/2000/svg">
<g clip-path="url(#clip0_2_17)">
<path d="M12.0083 10.6646H46.294L42.0083 29.9215H16.294M42.0083 35.8467H17.7225L10.5797 4.7394H6.29398" stroke="#FF8C00" stroke-width="5" stroke-linecap="round" stroke-linejoin="round"/>
<path d="M39.1511 44.7344C40.7291 44.7344 42.0083 43.408 42.0083 41.7718C42.0083 40.1356 40.7291 38.8092 39.1511 38.8092C37.5732 38.8092 36.294 40.1356 36.294 41.7718C36.294 43.408 37.5732 44.7344 39.1511 44.7344Z" stroke="#FF8C00" stroke-width="5" stroke-linecap="round" stroke-linejoin="round"/>
<path d="M20.5797 44.7344C22.1576 44.7344 23.4368 43.408 23.4368 41.7718C23.4368 40.1356 22.1576 38.8092 20.5797 38.8092C19.0017 38.8092 17.7225 40.1356 17.7225 41.7718C17.7225 43.408 19.0017 44.7344 20.5797 44.7344Z" stroke="#FF8C00" stroke-width="5" stroke-linecap="round" stroke-linejoin="round"/>
<path d="M22.1543 35.8466L8.13951 22.2319L14.5263 16.0274L22.1543 23.4596L44.4515 1.77679L50.8383 7.98128L22.1543 35.8466Z" fill="#6A0DAD"/>
</g>
<path d="M62.9037 19.2634C63.769 19.2634 64.4363 19.3587 64.9057 19.5494C65.375 19.7254 65.7783 19.916 66.1157 20.1214C66.2917 20.224 66.431 20.3047 66.5337 20.3634C66.651 20.4074 66.761 20.4294 66.8637 20.4294C67.0103 20.4294 67.113 20.3487 67.1717 20.1874C67.245 20.026 67.3037 19.784 67.3477 19.4614H67.8537C67.839 19.74 67.817 20.0774 67.7877 20.4734C67.773 20.8547 67.7583 21.3607 67.7437 21.9914C67.7437 22.622 67.7437 23.4507 67.7437 24.4774H67.2377C67.179 23.7147 67.003 22.974 66.7097 22.2554C66.4163 21.5367 65.9983 20.95 65.4557 20.4954C64.9277 20.026 64.275 19.7914 63.4977 19.7914C62.7937 19.7914 62.2143 19.9894 61.7597 20.3854C61.305 20.7814 61.0777 21.3314 61.0777 22.0354C61.0777 22.622 61.2243 23.128 61.5177 23.5534C61.811 23.964 62.2363 24.3674 62.7937 24.7634C63.3657 25.1594 64.055 25.636 64.8617 26.1934C65.5657 26.648 66.1963 27.1027 66.7537 27.5574C67.311 28.012 67.7583 28.5254 68.0957 29.0974C68.433 29.6694 68.6017 30.3514 68.6017 31.1434C68.6017 32.1114 68.345 32.9107 67.8317 33.5414C67.333 34.172 66.673 34.6487 65.8517 34.9714C65.0303 35.2794 64.1283 35.4334 63.1457 35.4334C62.2363 35.4334 61.5103 35.3454 60.9677 35.1694C60.425 34.9934 59.9703 34.81 59.6037 34.6194C59.281 34.414 59.0317 34.3114 58.8557 34.3114C58.709 34.3114 58.599 34.392 58.5257 34.5534C58.467 34.7147 58.4157 34.9567 58.3717 35.2794H57.8657C57.895 34.9274 57.9097 34.5167 57.9097 34.0474C57.9243 33.578 57.9317 32.9694 57.9317 32.2214C57.9463 31.4587 57.9537 30.498 57.9537 29.3394H58.4597C58.5183 30.3074 58.6797 31.2167 58.9437 32.0674C59.2223 32.9034 59.6403 33.578 60.1977 34.0914C60.7697 34.6047 61.525 34.8614 62.4637 34.8614C62.977 34.8614 63.4317 34.7734 63.8277 34.5974C64.2383 34.4067 64.5683 34.128 64.8177 33.7614C65.067 33.3947 65.1917 32.94 65.1917 32.3974C65.1917 31.7814 65.045 31.246 64.7517 30.7914C64.473 30.3367 64.0843 29.9114 63.5857 29.5154C63.1017 29.1194 62.537 28.716 61.8917 28.3054C61.2023 27.8507 60.557 27.396 59.9557 26.9414C59.3543 26.4867 58.8703 25.966 58.5037 25.3794C58.1517 24.7927 57.9757 24.096 57.9757 23.2894C57.9757 22.3654 58.203 21.61 58.6577 21.0234C59.127 20.422 59.7357 19.982 60.4837 19.7034C61.2463 19.41 62.053 19.2634 62.9037 19.2634ZM73.0673 35.2794C72.4073 35.2794 71.8573 35.1547 71.4173 34.9054C70.9773 34.656 70.6547 34.326 70.4493 33.9154C70.244 33.49 70.1413 33.028 70.1413 32.5294C70.1413 31.8987 70.2807 31.3854 70.5593 30.9894C70.8527 30.5934 71.2267 30.2707 71.6813 30.0214C72.136 29.772 72.6127 29.5667 73.1113 29.4054C73.6247 29.244 74.1087 29.09 74.5633 28.9434C75.0327 28.782 75.4067 28.5987 75.6853 28.3934C75.9787 28.1734 76.1253 27.8947 76.1253 27.5574V25.8414C76.1253 25.46 76.0593 25.1227 75.9273 24.8294C75.81 24.5214 75.6193 24.2867 75.3553 24.1254C75.106 23.964 74.776 23.8834 74.3653 23.8834C74.072 23.8834 73.7787 23.9274 73.4853 24.0154C73.192 24.0887 72.95 24.2207 72.7593 24.4114C73.17 24.558 73.4853 24.7854 73.7053 25.0934C73.94 25.3867 74.0573 25.724 74.0573 26.1054C74.0573 26.604 73.8813 27 73.5293 27.2934C73.192 27.5867 72.7887 27.7334 72.3193 27.7334C71.7913 27.7334 71.388 27.572 71.1093 27.2494C70.8453 26.912 70.7133 26.5087 70.7133 26.0394C70.7133 25.614 70.816 25.262 71.0213 24.9834C71.2413 24.7047 71.542 24.4407 71.9233 24.1914C72.334 23.9567 72.8253 23.7734 73.3973 23.6414C73.984 23.5094 74.6147 23.4434 75.2893 23.4434C75.964 23.4434 76.5727 23.5167 77.1153 23.6634C77.658 23.7954 78.1127 24.0447 78.4793 24.4114C78.8167 24.7487 79.0367 25.1667 79.1393 25.6654C79.242 26.1494 79.2933 26.7654 79.2933 27.5134V33.4974C79.2933 33.864 79.33 34.1207 79.4033 34.2674C79.4767 34.3994 79.6013 34.4654 79.7773 34.4654C79.9093 34.4654 80.034 34.4287 80.1513 34.3554C80.2833 34.282 80.4227 34.194 80.5693 34.0914L80.7893 34.4654C80.4813 34.7294 80.122 34.9347 79.7113 35.0814C79.3153 35.2134 78.868 35.2794 78.3693 35.2794C77.8267 35.2794 77.394 35.206 77.0713 35.0594C76.7487 34.898 76.514 34.6854 76.3673 34.4214C76.2353 34.1574 76.1693 33.8494 76.1693 33.4974C75.8173 34.0547 75.392 34.4947 74.8933 34.8174C74.3947 35.1254 73.786 35.2794 73.0673 35.2794ZM74.6293 33.8714C74.9227 33.8714 75.1867 33.8054 75.4213 33.6734C75.6707 33.5267 75.9053 33.292 76.1253 32.9694V28.4594C75.9933 28.6794 75.81 28.8774 75.5753 29.0534C75.3407 29.2294 75.0913 29.4127 74.8273 29.6034C74.5633 29.7794 74.3067 29.9774 74.0573 30.1974C73.8227 30.4174 73.632 30.6887 73.4853 31.0114C73.3387 31.334 73.2653 31.7227 73.2653 32.1774C73.2653 32.7494 73.39 33.1747 73.6393 33.4534C73.8887 33.732 74.2187 33.8714 74.6293 33.8714ZM89.404 23.4434C90.02 23.4434 90.5187 23.524 90.9 23.6854C91.2814 23.832 91.5894 24.0374 91.824 24.3014C92.0587 24.58 92.2274 24.9467 92.33 25.4014C92.4327 25.8414 92.484 26.428 92.484 27.1614V33.0794C92.484 33.6954 92.5794 34.1134 92.77 34.3334C92.9607 34.5534 93.2907 34.6634 93.76 34.6634V35.1254C93.496 35.1107 93.0927 35.096 92.55 35.0814C92.022 35.052 91.5014 35.0374 90.988 35.0374C90.46 35.0374 89.9394 35.052 89.426 35.0814C88.9127 35.096 88.524 35.1107 88.26 35.1254V34.6634C88.656 34.6634 88.9274 34.5534 89.074 34.3334C89.2354 34.1134 89.316 33.6954 89.316 33.0794V26.2374C89.316 25.8707 89.2867 25.5554 89.228 25.2914C89.1694 25.0127 89.052 24.8 88.876 24.6534C88.7147 24.492 88.4654 24.4114 88.128 24.4114C87.7467 24.4114 87.3947 24.5214 87.072 24.7414C86.7494 24.9614 86.4854 25.2694 86.28 25.6654C86.0894 26.0467 85.994 26.4794 85.994 26.9634V33.0794C85.994 33.6954 86.0747 34.1134 86.236 34.3334C86.3974 34.5534 86.6687 34.6634 87.05 34.6634V35.1254C86.8154 35.1107 86.4487 35.096 85.95 35.0814C85.466 35.052 84.9674 35.0374 84.454 35.0374C83.8967 35.0374 83.3247 35.052 82.738 35.0814C82.1514 35.096 81.7114 35.1107 81.418 35.1254V34.6634C81.9314 34.6634 82.2907 34.5534 82.496 34.3334C82.716 34.1134 82.826 33.6954 82.826 33.0794V26.1494C82.826 25.4894 82.7234 25.0054 82.518 24.6974C82.3274 24.3747 81.9607 24.2134 81.418 24.2134V23.7514C81.8874 23.7954 82.342 23.8174 82.782 23.8174C83.398 23.8174 83.97 23.7954 84.498 23.7514C85.0407 23.6927 85.5394 23.612 85.994 23.5094V25.4894C86.346 24.756 86.8227 24.2354 87.424 23.9274C88.0254 23.6047 88.6854 23.4434 89.404 23.4434ZM96.026 23.4434C96.642 23.4434 97.1407 23.524 97.522 23.6854C97.9034 23.832 98.2114 24.0374 98.446 24.3014C98.6807 24.58 98.8494 24.9467 98.952 25.4014C99.0547 25.8414 99.106 26.428 99.106 27.1614V33.0794C99.106 33.6954 99.2087 34.1134 99.414 34.3334C99.634 34.5534 100.001 34.6634 100.514 34.6634V35.1254C100.235 35.1107 99.8174 35.096 99.26 35.0814C98.7027 35.052 98.1527 35.0374 97.61 35.0374C97.082 35.0374 96.5614 35.052 96.048 35.0814C95.5347 35.096 95.146 35.1107 94.882 35.1254V34.6634C95.278 34.6634 95.5494 34.5534 95.696 34.3334C95.8574 34.1134 95.938 33.6954 95.938 33.0794V26.2374C95.938 25.8707 95.9014 25.5554 95.828 25.2914C95.7694 25.0127 95.6447 24.8 95.454 24.6534C95.278 24.492 94.9994 24.4114 94.618 24.4114C94.2367 24.4114 93.8847 24.5287 93.562 24.7634C93.2394 24.998 92.9754 25.3134 92.77 25.7094C92.5794 26.1054 92.4767 26.5454 92.462 27.0294L92.352 25.6874C92.748 24.8074 93.2687 24.2134 93.914 23.9054C94.574 23.5974 95.278 23.4434 96.026 23.4434ZM107.01 23.4434C108.301 23.4434 109.313 23.8247 110.046 24.5874C110.779 25.35 111.146 26.5967 111.146 28.3274H103.908L103.864 27.9094H108.374C108.389 27.1907 108.345 26.5307 108.242 25.9294C108.139 25.3134 107.978 24.822 107.758 24.4554C107.538 24.0887 107.245 23.9054 106.878 23.9054C106.365 23.9054 105.925 24.228 105.558 24.8734C105.206 25.5187 104.993 26.5894 104.92 28.0854L104.986 28.2174C104.971 28.3934 104.957 28.5767 104.942 28.7674C104.942 28.958 104.942 29.156 104.942 29.3614C104.942 30.3734 105.081 31.1947 105.36 31.8254C105.653 32.456 106.02 32.918 106.46 33.2114C106.9 33.49 107.347 33.6294 107.802 33.6294C108.11 33.6294 108.425 33.5854 108.748 33.4974C109.085 33.3947 109.423 33.2187 109.76 32.9694C110.097 32.7054 110.413 32.3387 110.706 31.8694L111.102 32.0014C110.926 32.5587 110.647 33.1014 110.266 33.6294C109.885 34.1574 109.401 34.59 108.814 34.9274C108.227 35.2647 107.523 35.4334 106.702 35.4334C105.705 35.4334 104.825 35.2207 104.062 34.7954C103.299 34.37 102.698 33.7247 102.258 32.8594C101.833 31.994 101.62 30.894 101.62 29.5594C101.62 28.1954 101.847 27.0587 102.302 26.1494C102.771 25.24 103.409 24.5654 104.216 24.1254C105.037 23.6707 105.969 23.4434 107.01 23.4434ZM118.096 23.4434C119.387 23.4434 120.399 23.8247 121.132 24.5874C121.865 25.35 122.232 26.5967 122.232 28.3274H114.994L114.95 27.9094H119.46C119.475 27.1907 119.431 26.5307 119.328 25.9294C119.225 25.3134 119.064 24.822 118.844 24.4554C118.624 24.0887 118.331 23.9054 117.964 23.9054C117.451 23.9054 117.011 24.228 116.644 24.8734C116.292 25.5187 116.079 26.5894 116.006 28.0854L116.072 28.2174C116.057 28.3934 116.043 28.5767 116.028 28.7674C116.028 28.958 116.028 29.156 116.028 29.3614C116.028 30.3734 116.167 31.1947 116.446 31.8254C116.739 32.456 117.106 32.918 117.546 33.2114C117.986 33.49 118.433 33.6294 118.888 33.6294C119.196 33.6294 119.511 33.5854 119.834 33.4974C120.171 33.3947 120.509 33.2187 120.846 32.9694C121.183 32.7054 121.499 32.3387 121.792 31.8694L122.188 32.0014C122.012 32.5587 121.733 33.1014 121.352 33.6294C120.971 34.1574 120.487 34.59 119.9 34.9274C119.313 35.2647 118.609 35.4334 117.788 35.4334C116.791 35.4334 115.911 35.2207 115.148 34.7954C114.385 34.37 113.784 33.7247 113.344 32.8594C112.919 31.994 112.706 30.894 112.706 29.5594C112.706 28.1954 112.933 27.0587 113.388 26.1494C113.857 25.24 114.495 24.5654 115.302 24.1254C116.123 23.6707 117.055 23.4434 118.096 23.4434ZM130.945 23.4434C131.414 23.4434 131.796 23.546 132.089 23.7514C132.382 23.942 132.595 24.1914 132.727 24.4994C132.874 24.8074 132.947 25.13 132.947 25.4674C132.947 26.01 132.786 26.4574 132.463 26.8094C132.155 27.1467 131.744 27.3154 131.231 27.3154C130.718 27.3154 130.314 27.1907 130.021 26.9414C129.742 26.6774 129.603 26.3327 129.603 25.9074C129.603 25.4967 129.691 25.1594 129.867 24.8954C130.058 24.6167 130.292 24.382 130.571 24.1914C130.366 24.1327 130.16 24.14 129.955 24.2134C129.676 24.2574 129.412 24.3747 129.163 24.5654C128.914 24.7414 128.701 24.9687 128.525 25.2474C128.349 25.5114 128.21 25.8047 128.107 26.1274C128.004 26.4354 127.953 26.736 127.953 27.0294V32.8594C127.953 33.5634 128.122 34.04 128.459 34.2894C128.811 34.5387 129.332 34.6634 130.021 34.6634V35.1254C129.684 35.1107 129.192 35.096 128.547 35.0814C127.902 35.052 127.227 35.0374 126.523 35.0374C125.936 35.0374 125.342 35.052 124.741 35.0814C124.14 35.096 123.685 35.1107 123.377 35.1254V34.6634C123.89 34.6634 124.25 34.5534 124.455 34.3334C124.675 34.1134 124.785 33.6954 124.785 33.0794V26.1494C124.785 25.4894 124.682 25.0054 124.477 24.6974C124.286 24.3747 123.92 24.2134 123.377 24.2134V23.7514C123.846 23.7954 124.301 23.8174 124.741 23.8174C125.357 23.8174 125.929 23.7954 126.457 23.7514C127 23.6927 127.498 23.612 127.953 23.5094V25.5554C128.129 25.1594 128.364 24.8 128.657 24.4774C128.95 24.1547 129.288 23.9054 129.669 23.7294C130.05 23.5387 130.476 23.4434 130.945 23.4434ZM141.853 19.2414C142.821 19.2414 143.613 19.388 144.229 19.6814C144.859 19.96 145.417 20.29 145.901 20.6714C146.194 20.8914 146.414 20.9207 146.561 20.7594C146.722 20.5834 146.832 20.18 146.891 19.5494H147.397C147.367 20.1214 147.345 20.818 147.331 21.6394C147.316 22.446 147.309 23.524 147.309 24.8734H146.803C146.729 24.1987 146.634 23.6267 146.517 23.1574C146.399 22.6734 146.238 22.248 146.033 21.8814C145.827 21.5147 145.534 21.1847 145.153 20.8914C144.786 20.5247 144.361 20.2534 143.877 20.0774C143.393 19.9014 142.887 19.8134 142.359 19.8134C141.567 19.8134 140.892 20.026 140.335 20.4514C139.777 20.862 139.323 21.4267 138.971 22.1454C138.633 22.864 138.384 23.678 138.223 24.5874C138.061 25.482 137.981 26.4134 137.981 27.3814C137.981 28.364 138.061 29.31 138.223 30.2194C138.399 31.114 138.663 31.9134 139.015 32.6174C139.381 33.3214 139.851 33.8787 140.423 34.2894C140.995 34.7 141.669 34.9054 142.447 34.9054C142.931 34.9054 143.415 34.8174 143.899 34.6414C144.397 34.4507 144.823 34.1794 145.175 33.8274C145.747 33.3874 146.135 32.8447 146.341 32.1994C146.546 31.5394 146.7 30.6667 146.803 29.5814H147.309C147.309 30.9747 147.316 32.104 147.331 32.9694C147.345 33.82 147.367 34.5387 147.397 35.1254H146.891C146.832 34.4947 146.729 34.0987 146.583 33.9374C146.451 33.776 146.223 33.798 145.901 34.0034C145.358 34.3847 144.779 34.722 144.163 35.0154C143.561 35.294 142.784 35.4334 141.831 35.4334C140.276 35.4334 138.912 35.118 137.739 34.4874C136.58 33.8567 135.678 32.9474 135.033 31.7594C134.387 30.5714 134.065 29.1414 134.065 27.4694C134.065 25.8267 134.395 24.3894 135.055 23.1574C135.729 21.9254 136.646 20.9647 137.805 20.2754C138.978 19.586 140.327 19.2414 141.853 19.2414ZM152.194 35.2794C151.534 35.2794 150.984 35.1547 150.544 34.9054C150.104 34.656 149.782 34.326 149.576 33.9154C149.371 33.49 149.268 33.028 149.268 32.5294C149.268 31.8987 149.408 31.3854 149.686 30.9894C149.98 30.5934 150.354 30.2707 150.808 30.0214C151.263 29.772 151.74 29.5667 152.238 29.4054C152.752 29.244 153.236 29.09 153.69 28.9434C154.16 28.782 154.534 28.5987 154.812 28.3934C155.106 28.1734 155.252 27.8947 155.252 27.5574V25.8414C155.252 25.46 155.186 25.1227 155.054 24.8294C154.937 24.5214 154.746 24.2867 154.482 24.1254C154.233 23.964 153.903 23.8834 153.492 23.8834C153.199 23.8834 152.906 23.9274 152.612 24.0154C152.319 24.0887 152.077 24.2207 151.886 24.4114C152.297 24.558 152.612 24.7854 152.832 25.0934C153.067 25.3867 153.184 25.724 153.184 26.1054C153.184 26.604 153.008 27 152.656 27.2934C152.319 27.5867 151.916 27.7334 151.446 27.7334C150.918 27.7334 150.515 27.572 150.236 27.2494C149.972 26.912 149.84 26.5087 149.84 26.0394C149.84 25.614 149.943 25.262 150.148 24.9834C150.368 24.7047 150.669 24.4407 151.05 24.1914C151.461 23.9567 151.952 23.7734 152.524 23.6414C153.111 23.5094 153.742 23.4434 154.416 23.4434C155.091 23.4434 155.7 23.5167 156.242 23.6634C156.785 23.7954 157.24 24.0447 157.606 24.4114C157.944 24.7487 158.164 25.1667 158.266 25.6654C158.369 26.1494 158.42 26.7654 158.42 27.5134V33.4974C158.42 33.864 158.457 34.1207 158.53 34.2674C158.604 34.3994 158.728 34.4654 158.904 34.4654C159.036 34.4654 159.161 34.4287 159.278 34.3554C159.41 34.282 159.55 34.194 159.696 34.0914L159.916 34.4654C159.608 34.7294 159.249 34.9347 158.838 35.0814C158.442 35.2134 157.995 35.2794 157.496 35.2794C156.954 35.2794 156.521 35.206 156.198 35.0594C155.876 34.898 155.641 34.6854 155.494 34.4214C155.362 34.1574 155.296 33.8494 155.296 33.4974C154.944 34.0547 154.519 34.4947 154.02 34.8174C153.522 35.1254 152.913 35.2794 152.194 35.2794ZM153.756 33.8714C154.05 33.8714 154.314 33.8054 154.548 33.6734C154.798 33.5267 155.032 33.292 155.252 32.9694V28.4594C155.12 28.6794 154.937 28.8774 154.702 29.0534C154.468 29.2294 154.218 29.4127 153.954 29.6034C153.69 29.7794 153.434 29.9774 153.184 30.1974C152.95 30.4174 152.759 30.6887 152.612 31.0114C152.466 31.334 152.392 31.7227 152.392 32.1774C152.392 32.7494 152.517 33.1747 152.766 33.4534C153.016 33.732 153.346 33.8714 153.756 33.8714ZM168.113 23.4434C168.582 23.4434 168.964 23.546 169.257 23.7514C169.55 23.942 169.763 24.1914 169.895 24.4994C170.042 24.8074 170.115 25.13 170.115 25.4674C170.115 26.01 169.954 26.4574 169.631 26.8094C169.323 27.1467 168.912 27.3154 168.399 27.3154C167.886 27.3154 167.482 27.1907 167.189 26.9414C166.91 26.6774 166.771 26.3327 166.771 25.9074C166.771 25.4967 166.859 25.1594 167.035 24.8954C167.226 24.6167 167.46 24.382 167.739 24.1914C167.534 24.1327 167.328 24.14 167.123 24.2134C166.844 24.2574 166.58 24.3747 166.331 24.5654C166.082 24.7414 165.869 24.9687 165.693 25.2474C165.517 25.5114 165.378 25.8047 165.275 26.1274C165.172 26.4354 165.121 26.736 165.121 27.0294V32.8594C165.121 33.5634 165.29 34.04 165.627 34.2894C165.979 34.5387 166.5 34.6634 167.189 34.6634V35.1254C166.852 35.1107 166.36 35.096 165.715 35.0814C165.07 35.052 164.395 35.0374 163.691 35.0374C163.104 35.0374 162.51 35.052 161.909 35.0814C161.308 35.096 160.853 35.1107 160.545 35.1254V34.6634C161.058 34.6634 161.418 34.5534 161.623 34.3334C161.843 34.1134 161.953 33.6954 161.953 33.0794V26.1494C161.953 25.4894 161.85 25.0054 161.645 24.6974C161.454 24.3747 161.088 24.2134 160.545 24.2134V23.7514C161.014 23.7954 161.469 23.8174 161.909 23.8174C162.525 23.8174 163.097 23.7954 163.625 23.7514C164.168 23.6927 164.666 23.612 165.121 23.5094V25.5554C165.297 25.1594 165.532 24.8 165.825 24.4774C166.118 24.1547 166.456 23.9054 166.837 23.7294C167.218 23.5387 167.644 23.4434 168.113 23.4434ZM175.281 20.1434V23.7514H177.877V24.1914H175.281V33.0794C175.281 33.5194 175.361 33.8347 175.523 34.0254C175.684 34.2014 175.926 34.2894 176.249 34.2894C176.513 34.2894 176.777 34.194 177.041 34.0034C177.305 33.798 177.539 33.4534 177.745 32.9694L178.119 33.1674C177.884 33.8274 177.525 34.37 177.041 34.7954C176.571 35.2207 175.926 35.4334 175.105 35.4334C174.621 35.4334 174.195 35.3674 173.829 35.2354C173.462 35.118 173.154 34.9347 172.905 34.6854C172.582 34.3627 172.369 33.9667 172.267 33.4974C172.164 33.0134 172.113 32.39 172.113 31.6274V24.1914H170.265V23.7514H172.113V20.8474C172.729 20.8474 173.293 20.796 173.807 20.6934C174.335 20.576 174.826 20.3927 175.281 20.1434Z" fill="#20C997"/>
<defs>
<clipPath id="clip0_2_17">
<rect width="50" height="50" fill="white" transform="translate(0.838287 3)"/>
</clipPath>
</defs>
</svg>
